<?xml version="1.0" encoding="utf-8"?>
<!-- Generator: Adobe Illustrator 19.0.0, SVG Export Plug-In . SVG Version: 6.00 Build 0)  -->
<svg version="1.1" xmlns="http://www.w3.org/2000/svg" xmlns:xlink="http://www.w3.org/1999/xlink" x="0px" y="0px"
	 viewBox="-87 220.6 420.7 401.3" style="enable-background:new -87 220.6 420.7 401.3;" xml:space="preserve">
<style type="text/css">
	.st0{fill:#F7F6F6;}
	.st1{display:none;}
	.st2{display:inline;}
	.st3{fill:#D3D3D3;}
	.st4{fill:#FFFFFF;}
	.st5{fill:#131313;}
</style>
<g id="Warstwa_2">
	<circle class="st0" cx="123.4" cy="421.2" r="197.9"/>
</g>
<g id="Warstwa_1" class="st1">
	<g class="st2">
		<path class="st3" d="M233,472.5l-41-17.8c-2.4-1.4-4.3-3.6-5.4-6.1c-0.5-1.1-0.5-2.4,0.2-3.4c0.6-1,1.8-1.7,3-1.7h28.9
			c6.4,0.5,12.8-0.3,18.8-2.5c2.3-1,4-3,4.6-5.3c0.7-2.4,0.2-4.9-1.2-7c-8.7-12.5-26.8-41.8-27.4-72.1c0,0-1-46.6-47-47
			c-7.9-0.1-15.7,1.6-22.8,5c0.9,3.7,1.3,7.5,0.9,11.2v24.3c2.7,2.4,4.2,5.7,4.2,9.3v16.8c0,5.5-3.6,10.4-8.9,12
			c-2.8,9-7.1,17.4-12.5,25.1c-1.2,1.7-2.4,3.3-3.8,4.9v15.7c0,3.5,1.2,6.9,3.4,9.6c3.9,2,7.7,4.4,11.2,7.1l33.9,16.9
			c11.4,5.7,18.6,17.4,18.6,30.1v12.8h58.7v-11.3C249.5,487.9,243.1,477.6,233,472.5z"/>
		<path class="st4" d="M233,472.5l-41-17.8c-2.3-1.5-4.1-3.7-5.1-6.3c-0.5-1.1-0.5-2.4,0.2-3.4c0.6-1,1.8-1.7,3-1.7l11.8,0.2
			c6.4,0.5,12.8-0.3,18.8-2.5c2.3-1,4-3,4.6-5.3s0.2-4.9-1.2-7c-8.7-12.5-26.8-41.8-27.4-72.1c0,0-1-46.6-47-47
			c-7.9-0.1-15.7,1.6-22.8,5c0.9,3.7,1.3,7.5,0.9,11.2v24.3c2.7,2.4,4.2,5.7,4.2,9.3v16.8c0,5.5-3.6,10.4-8.9,12
			c-2.8,9-7.1,17.4-12.5,25.1c-1.2,1.7-2.4,3.3-3.8,4.9v15.7c0,3.5,1.2,6.9,3.4,9.6c3.9,2,7.7,4.4,11.2,7.1l33.9,16.9
			c11.4,5.7,35.4,17.4,35.4,30.1v12.8h58.7v-11.3C249.5,487.9,243.1,477.6,233,472.5z"/>
		<path class="st3" d="M172.2,467.6l-40.1-20c-5.2-2.6-8.5-7.9-8.5-13.7v-15.7c1.3-1.6,2.6-3.2,3.8-4.9c5.4-7.7,9.6-16.2,12.5-25.1
			c5.3-1.6,8.9-6.5,8.9-12v-16.8c0-3.6-1.5-6.9-4.2-9.3v-24.3c0,0,5-37.8-46.2-37.8s-46.2,37.8-46.2,37.8v24.3
			c-2.7,2.4-4.2,5.7-4.2,9.3v16.8c0,4.3,2.2,8.3,5.8,10.6c2.8,11.4,8,22.1,15.2,31.4v15.3c0,5.6-3.1,10.7-8,13.4l-37.4,20.4
			c-10.8,5.9-17.5,17.2-17.5,29.5v13.6h184.6v-12.8C190.8,485,183.6,473.3,172.2,467.6L172.2,467.6z"/>
		<path class="st4" d="M153,467.6l-33.5-20c-5.2-2.6-8.5-7.9-8.5-13.7v-15.7c1.3-1.6,2.6-3.2,3.8-4.9c5.4-7.7,9.6-16.2,12.5-25.1
			c5.3-1.6,8.9-6.5,8.9-12v-16.8c0-3.6-1.5-6.9-4.2-9.3v-24.3c0,0,5-37.8-46.2-37.8c-34.6,0-33.6,37.8-33.6,37.8v24.3
			c-2.7,2.4-4.2,5.7-4.2,9.3v16.8c0,4.3,2.2,8.3,5.8,10.6c2.8,11.4,8,22.1,15.2,31.4v15.3c0,5.6-3.1,10.7-8,13.4l-37.4,20.4
			c-10.8,5.9-17.5,17.2-17.5,29.5v13.6h165.5v-12.8C171.6,485,164.4,473.3,153,467.6z"/>
		<g>
			<path class="st5" d="M190.8,514.7H6.1c-1.1,0-2.2-0.4-3-1.2s-1.2-1.9-1.2-3v-13.6c0-13.9,7.6-26.6,19.7-33.2l37.4-20.4
				c3.6-1.9,5.8-5.7,5.8-9.7v-13.9c-6.8-9.1-11.8-19.4-14.7-30.4c-4-3.2-6.3-8-6.3-13v-16.8c0-4.1,1.5-8,4.2-11v-22.3
				c-0.8-9.9,2.3-19.8,8.8-27.4c8.6-9.8,22.6-14.8,41.6-14.8s33,5,41.6,14.8c6.4,7.6,9.6,17.5,8.8,27.4v22.3c2.7,3,4.2,7,4.2,11
				v16.8c0,6.5-3.8,12.5-9.8,15.2c-3,8.7-7.1,16.9-12.4,24.3c-1,1.5-2.1,2.8-3,4v14.2c0,4.2,2.4,8.1,6.1,9.9l40.1,20
				c12.9,6.4,21,19.5,20.9,33.9v12.8c0,1.1-0.4,2.2-1.2,3C192.9,514.3,191.9,514.7,190.8,514.7z M10.3,506.3h176.2v-8.6
				c0-11.2-6.3-21.4-16.3-26.3l0,0l-40.1-20c-6.6-3.3-10.8-10-10.8-17.4v-15.7c0-1,0.4-2,1-2.8c1.2-1.4,2.4-3,3.5-4.5
				c5.2-7.3,9.2-15.4,11.9-24c0.4-1.3,1.4-2.3,2.8-2.7c3.5-1,6-4.3,6-8v-16.8c0-2.4-1-4.6-2.8-6.2c-0.9-0.8-1.4-1.9-1.4-3.1v-24.3
				c0-0.2,0-0.4,0-0.5c0.6-7.7-1.9-15.3-6.8-21.2c-7-7.9-18.8-11.9-35.2-11.9c-16.4,0-28.3,4-35.3,12c-4.9,5.9-7.3,13.4-6.7,21.1
				c0,0.2,0,0.4,0,0.5v24.3c0,1.2-0.5,2.3-1.4,3.1c-1.8,1.6-2.8,3.8-2.8,6.2v16.8c0,2.9,1.5,5.5,3.9,7c0.9,0.6,1.6,1.5,1.8,2.6
				c2.6,10.8,7.5,20.9,14.3,29.6c0.6,0.8,1,1.7,1,2.7v15.3c0,7.1-3.9,13.7-10.2,17.1l-37.4,20.4c-9.5,5.2-15.4,15.1-15.4,25.9V506.3
				z"/>
			<path class="st5" d="M249.5,514.7h-58.7c-1.1,0-2.2-0.4-3-1.2c-0.8-0.8-1.2-1.9-1.2-3v-12.8c0-11.2-6.3-21.4-16.3-26.3
				l-33.9-16.9c-0.6-0.3-1.2-0.8-1.6-1.4c-1.5-1.1-6-3.8-9.8-5.9c-0.5-0.3-0.9-0.6-1.2-1c-2.8-3.5-4.4-7.8-4.4-12.3v-15.7
				c0-1,0.4-2,1-2.8c1.2-1.4,2.4-3,3.5-4.5c5.2-7.3,9.2-15.4,11.9-24c0.4-1.3,1.4-2.3,2.8-2.7c3.5-1,6-4.3,6-8v-16.8
				c0-2.4-1-4.6-2.8-6.2c-0.9-0.8-1.4-1.9-1.4-3.1v-24.3c0-0.2,0-0.4,0-0.5c0.2-3.2,0-6.5-0.9-9.7c-0.5-1.9,0.5-3.9,2.2-4.8
				c7.7-3.6,16.1-5.5,24.6-5.4c49.6,0.4,51.2,50.6,51.2,51.1c0.6,29.5,18.8,58.6,26.7,69.7c2.2,3.1,2.8,6.9,1.8,10.5
				c-1,3.6-3.6,6.6-7,8.1c-6.7,2.4-13.8,3.4-20.8,2.8l-27.4,0c0.7,1.3,1.7,2.4,3,3.2l40.8,17.7l0.2,0.1
				c11.6,5.7,18.9,17.5,18.8,30.4v11.3c0,1.1-0.4,2.2-1.2,3C251.7,514.3,250.6,514.7,249.5,514.7z M195,506.3h50.4v-7.1
				c0-9.7-5.4-18.5-14.1-22.9l-40.9-17.7c-3.3-1.8-5.9-4.7-7.4-8.1c-1.2-2.4-1-5.2,0.4-7.5c1.4-2.3,3.9-3.6,6.6-3.6h28.9
				c5.8,0.5,11.6-0.2,17.1-2.2c1.1-0.5,1.9-1.4,2.2-2.6c0.3-1.2,0.1-2.5-0.6-3.5c-8.3-11.8-27.6-42.6-28.2-74.4
				c0-1.7-1.6-42.5-42.8-42.9c-6.2,0-12.3,1.1-18,3.3c0.5,3,0.6,6,0.4,9v22.3c2.7,3,4.2,7,4.2,11v16.8c0,6.5-3.8,12.5-9.8,15.2
				c-3,8.7-7.1,16.9-12.4,24.3c-1,1.5-2.1,2.8-3,4v14.2c0,2.3,0.7,4.5,2,6.4c4,2,7.8,4.4,11.3,7.1l32.9,16.4
				c12.9,6.4,21,19.5,20.9,33.9L195,506.3L195,506.3z"/>
		</g>
	</g>
</g>
<g id="Warstwa_3" class="st1">
	<g transform="translate(0 -1)" class="st2">
		<g transform="translate(1 1)">
			<g>
				<path class="st4" d="M244.3,374.1c-2.6-11.6-8.5-22.1-17.2-30.2c-13.1-11.5-30.4-17.1-47.8-15.3c-1.6,0.1-3.3,0.3-4.9,0.6
					c-19.1,3.2-35.6,18.5-47,36.2c-1.9-2.9-3.9-5.7-6-8.4c-10.9-13.9-25-25.1-41-27.8c-5.6-0.9-11.3-1.2-17-0.6
					c-13.2,1.1-25.8,6.5-35.7,15.3c-8.6,8.1-14.6,18.6-17.1,30.2c-4.6,18.5-2.4,40.4,6.1,63.3c2.8,7.7,6.2,15.1,10.1,22.2
					c1.7,3.3,3.5,6.4,5.5,9.5c7.7,11.5,16.7,22,26.9,31.4c19.1,17.7,39.9,33.5,62.2,47.1c1.4,0.8,2.7,1.6,4,2.4
					c1.3,0.8,2.9,0.8,4.1,0c23.7-14.2,45.8-30.8,66.1-49.5c10.1-9.4,19.1-19.9,26.8-31.4c2-3,3.8-6.1,5.5-9.3
					c4-7.2,7.4-14.7,10.2-22.4C246.7,414.5,248.8,392.6,244.3,374.1z"/>
				<path class="st3" d="M186.3,498c-0.9,0.8-1.8,1.7-2.7,2.6c-19.1,17.7-40,33.5-62.2,47.1c1.4,0.8,2.7,1.6,4,2.4
					c1.3,0.8,2.9,0.8,4.1,0c22.3-13.4,43.2-28.9,62.5-46.2L186.3,498z M244.3,374.1c-2.6-11.6-8.5-22.1-17.2-30.2
					c-13.1-11.5-30.4-17.1-47.8-15.3c13.2,1.1,25.8,6.5,35.7,15.3c8.7,8.1,14.6,18.6,17.2,30.2c2.4,10.2,3,20.7,1.7,31.1l10.4,10.4
					l0,0C247.4,402,247.4,387.8,244.3,374.1z M227.4,433.6C227.4,433.7,227.4,433.7,227.4,433.6l8.5,8.6c0,0,0,0,0-0.1L227.4,433.6z
					"/>
			</g>
			<path class="st3" d="M244.3,415.7c-1.3,6.4-3,12.7-5.2,18.8v0c-0.2,0.7-0.5,1.4-0.7,2.1c-0.1,0.3-0.2,0.6-0.3,0.8
				c-0.6,1.7-1.3,3.4-2,5.1l-0.3-0.3c0,0,0,0,0-0.1l-8.5-8.5c3.2-9.2,5.4-18.7,6.5-28.4L244.3,415.7L244.3,415.7z"/>
			<path class="st4" d="M227.4,433.6l8.5,8.5c0,0,0,0,0,0.1L227.4,433.6l-7.2-7.2l-7.8-7.8c-0.1-0.1-0.3-0.3-0.4-0.5
				c-4.5-5-4.2-12.6,0.6-17.3c4.9-4.6,12.5-4.5,17.3,0.2l4.1,4.1C232.8,414.9,230.6,424.4,227.4,433.6z"/>
			<path class="st3" d="M236.1,442.6c-2.4,5.9-5.2,11.6-8.2,17.2c-1,1.9-2.1,4-3.5,6.3l-7.7-7.8c0-0.1,0.1-0.1,0.1-0.2
				c3.6-6.6,6.7-13.5,9.3-20.6c0.5-1.2,0.9-2.4,1.3-3.7l8.5,8.5L236.1,442.6z"/>
			<path class="st4" d="M235.9,442.1C235.9,442.2,235.9,442.2,235.9,442.1l-8.6-8.4c-0.4,1.3-0.8,2.5-1.3,3.7
				c-2.6,7.1-5.7,14-9.3,20.6l-30.6-30.6l-0.1-0.1l-5.8-5.8c-3.1-3.1-4.4-7.7-3.2-11.9s4.5-7.6,8.7-8.7c4.3-1.1,8.8,0.1,11.9,3.2h0
				l14.1,14.1c0.1,0.2,0.3,0.3,0.4,0.5l7.8,7.8l7.2,7.2L235.9,442.1z"/>
			<path class="st3" d="M224.4,466c-0.5,0.7-0.9,1.4-1.4,2.2c-0.2,0.3-0.4,0.6-0.6,0.9c-3.8,5.8-8,11.3-12.6,16.5l-0.5-0.5l-6.2-6.1
				c2.7-3.4,5.1-6.7,7.2-9.9c2-3,3.8-6.1,5.4-9.3c0.3-0.5,0.5-1,0.8-1.6L224.4,466z"/>
			<path class="st4" d="M186.2,427.4l30.5,30.8c-0.3,0.5-0.5,1.1-0.8,1.6c-1.6,3.2-3.5,6.3-5.4,9.3c-2.1,3.2-4.5,6.5-7.2,9.9
				c0,0.1-0.1,0.1-0.2,0.2l-34.4-34.4c-4.8-4.8-4.8-12.6,0-17.5C173.5,422.5,181.3,422.5,186.2,427.4L186.2,427.4z"/>
			<path class="st3" d="M209.9,485.6c-4.2,4.9-8.6,9.6-13.3,14c-0.3,0.3-0.6,0.7-0.9,0.9c-0.1,0.1-0.2,0.2-0.2,0.2
				c-1.1,1.1-2.2,2.1-3.3,3.1l-5.8-5.9c6-5.9,11.6-12.1,16.8-18.7c0-0.1,0.1-0.1,0.2-0.2l6.2,6.1L209.9,485.6z"/>
			<g>
				<path class="st4" d="M203.2,479c0,0.1-0.1,0.1-0.2,0.2c-5.2,6.6-10.8,12.8-16.8,18.7l-26.4-26.9c-4.8-4.8-4.8-12.6,0-17.5
					c4.8-4.8,12.6-4.8,17.5,0l0,0L203.2,479z"/>
				<path class="st3" d="M42.6,401.1c-4.8-4.8-12.6-4.8-17.5,0l-4.1,4.1l-10.4,10.4l0,0c1.3,6.4,3,12.7,5.2,18.8v0
					c0.2,0.7,0.5,1.4,0.7,2.1c0.1,0.3,0.2,0.6,0.3,0.8c0.6,1.7,1.3,3.4,2,5.1l0.3-0.3l8.5-8.5l7.2-7.3l7.8-7.8
					c0.1-0.1,0.3-0.3,0.4-0.5C47.4,413.3,47.3,405.8,42.6,401.1z"/>
				<path class="st3" d="M74.6,404c-4.8-4.8-12.6-4.8-17.5,0h0L43,418.2c-0.1,0.2-0.3,0.3-0.4,0.5l-7.8,7.8l-7.2,7.2l-8.5,8.5
					c0,0,0,0,0,0.1l-0.3,0.3c2.4,5.9,5.2,11.6,8.2,17.2c1,1.9,2.1,4,3.5,6.3l7.7-7.8c0-0.1-0.1-0.1-0.1-0.2l30.6-30.6l0.1-0.1
					l5.8-5.8C79.4,416.7,79.4,408.9,74.6,404z"/>
				<path class="st3" d="M86.3,427.4c-4.8-4.8-12.6-4.8-17.5,0l-0.1,0.1l-30.5,30.8l-7.7,7.8c0.5,0.7,0.9,1.4,1.4,2.2
					c0.2,0.3,0.4,0.6,0.6,0.9c3.8,5.8,8,11.3,12.6,16.5l0.5-0.5l6.2-6.1c0,0.1,0.1,0.1,0.2,0.2l34.4-34.4
					C91.1,440,91.1,432.2,86.3,427.4z"/>
				<path class="st3" d="M95,453.6c-4.8-4.8-12.6-4.8-17.5,0l0,0L51.7,479l-6.2,6.1l-0.5,0.5c4.2,4.9,8.6,9.6,13.3,14
					c0.3,0.3,0.6,0.7,0.9,0.9c0.1,0.1,0.2,0.2,0.2,0.2c1.1,1.1,2.2,2.1,3.3,3.1l5.8-5.9L95,471.1C99.8,466.2,99.8,458.4,95,453.6z"
					/>
			</g>
		</g>
		<g>
			<g>
				<path class="st4" d="M76.3,504.9L76.3,504.9c-0.7-0.6-1.3-1.2-2-1.8c-0.5-0.5-1.1-1-1.6-1.5c-10.1-9.4-19.1-20-26.9-31.4
					c-0.3-0.5-0.6-1-0.9-1.5c-0.3-0.5-0.7-1.1-1-1.6c-0.1-0.2-0.2-0.4-0.3-0.6c-0.5-0.9-1-1.7-1.5-2.5c-0.1-0.2-0.2-0.3-0.3-0.5
					c-0.5-0.9-1-1.9-1.5-2.7c-1.5-2.7-2.8-5.4-4.1-8.1l-0.3-0.6c-1.3-2.7-2.5-5.5-3.7-8.2l-0.1-0.2c-0.3-0.8-0.6-1.6-0.9-2.4
					c-0.3-0.9-0.7-1.8-1.1-2.7c-0.1-0.3-0.2-0.6-0.3-0.9c-0.3-0.7-0.5-1.3-0.7-1.9v0c-0.1-0.3-0.2-0.6-0.3-1
					c-0.9-2.5-1.6-4.9-2.3-7.4c-0.2-0.8-0.4-1.6-0.7-2.4c-0.7-2.6-1.3-5.1-1.8-7.6c0-0.2-0.1-0.3-0.1-0.5l0,0
					c-3-13.7-3-27.9,0.1-41.6c2.5-11.6,8.5-22.1,17.1-30.2c9.9-8.8,22.4-14.2,35.6-15.3c-4.1-0.4-8.2-0.4-12.2,0
					c-13.2,1.1-25.8,6.5-35.7,15.3c-8.6,8.1-14.6,18.6-17.1,30.2c-3.1,13.7-3.1,27.9-0.1,41.6l0,0c0,0.2,0.1,0.3,0.1,0.5
					c0.5,2.5,1.1,5,1.8,7.6c0.2,0.8,0.4,1.6,0.7,2.4c0.7,2.4,1.5,4.9,2.3,7.4c0.1,0.3,0.2,0.6,0.3,1v0c0.2,0.6,0.4,1.3,0.7,1.9
					c0.1,0.3,0.2,0.6,0.3,0.9c0.3,0.9,0.7,1.8,1.1,2.7c0.3,0.8,0.6,1.6,0.9,2.4l0.1,0.2c1.1,2.8,2.4,5.5,3.7,8.2l0.3,0.6
					c1.3,2.7,2.7,5.5,4.1,8.1c0.4,0.9,1,1.8,1.5,2.7c0.1,0.2,0.2,0.3,0.3,0.5c0.5,0.8,1,1.7,1.5,2.5c0.1,0.2,0.2,0.4,0.3,0.6
					c0.3,0.5,0.7,1.1,1,1.6c0.3,0.5,0.6,1,0.9,1.5c7.7,11.5,16.7,22,26.9,31.4c0.5,0.5,1.1,1,1.6,1.5c0.6,0.6,1.3,1.2,1.9,1.8l0,0
					c18.2,16.3,37.7,31,58.5,43.8c1.4,0.8,2.7,1.6,4,2.4c1.3,0.8,2.9,0.8,4.1,0c1.3-0.8,2.7-1.7,4.1-2.5
					C113.9,535.8,94.4,521.1,76.3,504.9z"/>
				<path class="st4" d="M66.8,501c13.1,11.9,27,22.8,41.6,32.8c7.3,5,14.7,9.8,22.2,14.4l-4.3,7c-7.7-4.7-15.2-9.6-22.6-14.7
					c-14.9-10.2-29.1-21.3-42.5-33.5L66.8,501z"/>
			</g>
			<g>
				<path class="st5" d="M88.8,521l-0.8,0.2c-0.3,0.1-0.5,0.2-0.7,0.4c-0.2,0.1-0.5,0.3-0.6,0.4c-0.2,0.2-0.4,0.4-0.6,0.6
					c-0.7,0.9-1,2-0.8,3c0.1,0.5,0.3,1.1,0.6,1.5c0.5,1,1.4,1.7,2.5,2c1.1,0.3,2.2,0.1,3.1-0.5c0.5-0.3,0.9-0.6,1.2-1.1
					c1-1.3,1.1-3.1,0.3-4.6C92.1,521.6,90.5,520.8,88.8,521L88.8,521z"/>
				<path class="st5" d="M231.8,341.3c-14.9-13.1-35-18.8-54.5-15.3c-20.3,3.6-38,15.7-48.8,33.3c-10.8-17.6-28.5-29.7-48.8-33.3
					c-19.6-3.5-39.6,2.1-54.5,15.3C7.2,357.8,0.8,385.5,7.5,417.5c0,0.1,0.1,0.2,0.1,0.3c0.2,0.5,0.4,1,0.8,1.4
					c0.1,0.1,0.1,0.2,0.2,0.3c0.1,0.1,0.2,0.2,0.4,0.2c0.2,0.2,0.4,0.3,0.7,0.4c0.5,0.2,1,0.4,1.5,0.4c0.1,0,0.3,0.1,0.4,0.1
					c0.1,0,0.3,0,0.4-0.1c0.1,0,0.3,0,0.4,0c0.1,0,0.2-0.1,0.3-0.1c0.3-0.1,0.5-0.2,0.8-0.3c0.2-0.1,0.5-0.3,0.7-0.5
					c0.1-0.1,0.2-0.1,0.3-0.2L29,405.1l0,0c3.2-3.2,8.3-3.2,11.6-0.1c3.2,3.1,3.3,8.3,0.3,11.5l-23.8,23.8c-1,1-1.5,2.6-1.1,4
					s1.5,2.5,2.9,2.9c1.4,0.4,2.9,0,4-1.1l23.5-23.5c0,0,0.1,0,0.1-0.1c0.1-0.1,0.1-0.1,0.2-0.2L60.9,408c0,0,0.1,0,0.1-0.1
					c3.3-3.1,8.4-3.1,11.6,0c3.2,3.2,3.2,8.4,0,11.6l0,0l-43.9,43.9c-1,1-1.4,2.6-1.1,4c0.4,1.4,1.5,2.5,2.9,2.9
					c1.4,0.4,2.9,0,4-1.1l38.1-38l0.1-0.1c3.3-3.1,8.4-3.1,11.6,0.2c3.2,3.2,3.1,8.4-0.1,11.6l-8.7,8.7l0,0l0,0l-31.8,31.8
					c-1,1-1.4,2.6-1.1,4c0.4,1.4,1.5,2.5,2.9,2.9c1.4,0.4,2.9,0,4-1.1l31.8-31.8c3.2-3.2,8.4-3.2,11.6,0c3.2,3.2,3.2,8.4,0,11.6
					c0,0,0,0,0,0.1l-31.9,31.9c-0.8,0.8-1.2,1.8-1.2,2.9s0.4,2.1,1.2,2.9c0,0,0.1,0.1,0.1,0.1l0,0c4.1,3.8,8.3,7.4,12.6,11
					c0.8,0.7,1.9,1,3,0.9c1.1-0.1,2.1-0.6,2.8-1.5c1.4-1.8,1.2-4.3-0.6-5.8c-3.1-2.6-6-5.2-9-7.9L98.9,475c0,0,0-0.1,0.1-0.1
					c6.3-6.4,6.3-16.8-0.1-23.2c-2.1-2.1-4.8-3.6-7.6-4.3c3.6-4.5,4.7-10.5,2.7-16s-6.7-9.4-12.3-10.5c3.1-6.3,1.8-13.8-3.1-18.8
					c-6.4-6.2-16.6-6.2-23.1-0.2c-0.1,0.1-0.2,0.1-0.2,0.2l-4.5,4.5c-0.7-2.8-2.2-5.4-4.2-7.4c-6.4-6.4-16.7-6.4-23.2-0.1
					c0,0-0.1,0-0.1,0.1l-8.9,8.9c-3.7-25.7,2.1-47.6,16.4-60.7c13.1-11.3,30.6-16.2,47.6-13.2c19.4,3.2,35.9,15.7,46.5,35.2
					c0.8,1.2,2.2,2,3.6,2c1.5,0,2.8-0.7,3.6-2c10.6-19.5,27.2-32,46.5-35.2c17.1-2.9,34.5,1.9,47.6,13.2
					c14.3,13.1,20.1,35,16.4,60.7l-8.9-8.9c-6.5-6.2-16.8-6.2-23.3,0c-2,2.1-3.5,4.6-4.2,7.4l-4.5-4.5c-0.1-0.1-0.1-0.1-0.2-0.1
					c-5.7-5.6-14.6-6.3-21.1-1.6c-6.5,4.7-8.6,13.3-5.1,20.5c-5.7,1.1-10.4,5.1-12.3,10.5c-2,5.4-1,11.5,2.7,16
					c-2.9,0.7-5.5,2.2-7.6,4.3c-6.4,6.4-6.4,16.8-0.1,23.2c0,0,0,0.1,0.1,0.1l28.9,28.9c-18.2,16-37.7,30.3-58.4,43
					c-6.8-4.2-13.5-8.5-20.1-13.1l-3.4-2.3c-1.9-1.3-4.4-0.9-5.7,1c-1.3,1.9-0.9,4.4,1,5.7l3.4,2.4c7.4,5.1,14.9,10,22.6,14.7l0,0
					c1.3,0.8,3,0.8,4.3,0c23.2-14,44.9-30.1,65.1-48.1c0,0,0,0,0.1-0.1c0,0,0,0,0.1,0c0.2-0.2,0.3-0.4,0.4-0.6
					c0.2-0.2,0.3-0.4,0.5-0.7c0.1-0.5,0.2-1,0.3-1.5c0-0.3-0.1-0.5-0.1-0.8c0-0.3-0.1-0.5-0.2-0.8c-0.1-0.2-0.3-0.5-0.4-0.7
					c-0.1-0.2-0.2-0.4-0.4-0.6c0,0,0,0-0.1-0.1c0,0,0,0,0-0.1l-31.9-31.9c0,0,0,0,0-0.1c-3.2-3.2-3.2-8.4,0-11.6
					c3.2-3.2,8.4-3.2,11.6,0l31.8,31.8c1.6,1.6,4.2,1.6,5.8,0c1.6-1.6,1.6-4.2,0-5.8l-31.8-31.8l0,0l0,0l-8.7-8.7
					c-2.1-2.1-2.9-5.1-2.1-8c0.8-2.8,3-5.1,5.8-5.8c2.8-0.8,5.9,0.1,8,2.1l0,0l38,38c1.6,1.6,4.2,1.6,5.8,0c1.6-1.6,1.6-4.2,0-5.8
					l-38-38l0,0c0,0-0.1,0-0.1-0.1l-5.7-5.8l0,0c-3.2-3.2-3.2-8.4,0-11.6c3.2-3.2,8.4-3.2,11.6,0c0,0,0.1,0,0.1,0.1l13.9,13.9
					c0.2,0.2,0.3,0.4,0.6,0.6l0,0l0,0l0,0l23.6,23.6c1,1,2.6,1.4,4,1.1s2.5-1.5,2.9-2.9s0-2.9-1.1-4l-23.6-23.6
					c-0.1-0.1-0.2-0.2-0.2-0.3l0,0c-3-3.3-2.8-8.3,0.3-11.4c3.3-3.1,8.4-3.1,11.6,0l14.5,14.5c0.1,0.1,0.2,0.1,0.3,0.2
					c0.4,0.3,0.9,0.6,1.4,0.8c0.1,0,0.2,0.1,0.3,0.1c0.3,0.1,0.6,0.1,0.8,0.1l0,0l0,0l0,0c0.5,0,1-0.1,1.5-0.3
					c0.1-0.1,0.3-0.1,0.4-0.2c0.3-0.2,0.6-0.4,0.9-0.6c0,0,0.1-0.1,0.2-0.1c0.1-0.1,0.1-0.2,0.2-0.3c0.2-0.2,0.4-0.5,0.5-0.8
					c0.1-0.2,0.2-0.4,0.2-0.6c0.1-0.1,0.1-0.2,0.2-0.4C256.1,385.5,249.7,357.8,231.8,341.3z"/>
			</g>
		</g>
	</g>
</g>
<g id="Warstwa_4">
	<g id="Page-1">
		<g id="_x30_01---Polar-Bear" transform="translate(0 -1)">
			<path id="Shape" class="st4" d="M233.5,450.3c-3.7,8.5-11.5,14.4-20.6,15.8c-0.4,0-0.9,0.1-1.3,0.2c-2.1,11.7-7.3,22.6-15.1,31.5
				c-11.3,12.2-29.6,20.1-58.9,21.9c-4.3,0.3-8.8,0.4-13.6,0.4c-4.8,0-9.3-0.1-13.6-0.4c-29.4-1.8-47.6-9.7-58.9-21.9
				c-7.8-8.9-13.1-19.8-15.1-31.5c-0.4-0.1-0.9-0.1-1.3-0.2c-9.1-1.4-16.9-7.4-20.6-15.8c-3.3-8.2-3.1-17.4,0.6-25.4
				c4.3-8.2,10.4-15.4,17.9-20.9c0.2-18.5,3.8-36.8,10.8-54c5.9-14.5,16-26.9,28.9-35.6c15.3-9.7,33.2-14.5,51.3-13.8
				c18.1-0.6,35.9,4.2,51.3,13.8c13,8.8,23,21.2,28.9,35.7c7,17.2,10.6,35.5,10.8,54v0c7.5,5.5,13.6,12.6,17.9,20.8
				C236.6,433,236.8,442.1,233.5,450.3L233.5,450.3z"/>
			<path id="Shape_1_" class="st3" d="M232.9,424.9c-4.3-8.2-10.4-15.4-17.9-20.8v0c-0.1-18.5-3.8-36.8-10.8-54
				c-5.9-14.5-16-26.9-28.9-35.7c-15.3-9.6-33.2-14.4-51.3-13.8c-2.1,0-4.2,0.1-6.2,0.2c16,0.3,31.6,5,45.1,13.6
				c13,8.8,23,21.2,28.9,35.7c7,17.2,10.6,35.5,10.8,54v0c7.5,5.5,13.6,12.6,17.9,20.8c3.6,8,3.9,17.2,0.6,25.4
				c-3.7,8.5-11.5,14.4-20.6,15.8c-0.4,0-0.9,0.1-1.3,0.2c-2.1,11.7-7.3,22.6-15.1,31.5c-11.3,12.2-29.6,20.1-58.9,21.9
				c-2.4,0.2-4.8,0.3-7.4,0.3c2,0.1,4.1,0.1,6.2,0.1c4.8,0,9.3-0.1,13.6-0.4c29.4-1.8,47.6-9.7,58.9-21.9
				c7.8-8.9,13.1-19.8,15.1-31.5c0.4-0.1,0.9-0.1,1.3-0.2c9.1-1.4,16.9-7.4,20.6-15.8C236.8,442.1,236.6,433,232.9,424.9
				L232.9,424.9z"/>
			<circle id="Oval" class="st4" cx="86.7" cy="375.2" r="8.3"/>
			<circle id="Oval_1_" class="st4" cx="161.3" cy="375.2" r="8.3"/>
			<path id="Shape_2_" class="st4" d="M139.2,389.8c13,3.9,22,12.5,22,22.7c0,13.7-8.3,24.8-37.3,24.8s-37.3-11.1-37.3-24.8
				c0-10.1,9-18.8,22-22.7H139.2z"/>
			<path id="Shape_3_" class="st3" d="M139.2,389.8h-12.4c13,3.9,22,12.5,22,22.7c0,12.7-7.1,23.1-31.1,24.6c2,0.1,4,0.2,6.2,0.2
				c29,0,37.3-11.1,37.3-24.8C161.3,402.3,152.3,393.6,139.2,389.8z"/>
			<ellipse id="Oval_2_" class="st4" cx="124" cy="393.8" rx="16.6" ry="10.4"/>
			<path id="Shape_4_" class="st3" d="M124,383.4c-2.1,0-4.2,0.3-6.2,0.8c6.1,1.5,10.4,5.2,10.4,9.6s-4.3,8-10.4,9.6
				c2,0.5,4.1,0.8,6.2,0.8c9.1,0,16.6-4.6,16.6-10.4S133.2,383.4,124,383.4z"/>
			<path id="Shape_5_" class="st4" d="M72.7,314.4L72.7,314.4c-13,8.8-23,21.2-28.9,35.7c-13.1-1.8-23-12.8-23.3-26
				c-0.3-13.2,9-24.7,22-27.1S68.3,301.9,72.7,314.4z"/>
			<path id="Shape_6_" class="st4" d="M227.5,323.4c0,13.5-10,24.9-23.3,26.7c-5.9-14.5-16-26.9-28.9-35.7
				c4.4-12.3,17-19.7,29.9-17.5S227.5,310.3,227.5,323.4L227.5,323.4z"/>
			<path id="Shape_7_" class="st3" d="M200.6,296.5c-2.1,0-4.1,0.3-6.1,0.8c10.5,2.5,18.5,11.2,20.3,21.9
				c1.7,10.7-3.1,21.4-12.4,27.1c0.6,1.2,1.2,2.5,1.8,3.8c14-1.9,24.2-14.4,23.2-28.5C226.5,307.5,214.8,296.5,200.6,296.5
				L200.6,296.5z"/>
			<path id="Shape_8_" class="st3" d="M47.4,296.5c-2.1,0-4.3,0.3-6.3,0.8c8.9,2.1,16.2,8.5,19.2,17.2v0
				c-11.8,7.9-21.2,18.9-27.1,31.8c3.2,2,6.8,3.3,10.6,3.8c5.9-14.5,16-26.9,28.9-35.6v0C69,303.6,58.8,296.5,47.4,296.5z"/>
			<path id="Shape_9_" class="st3" d="M110.4,519.7c-3.9,9.8-17.7,17-34,17c-19.4,0-35.2-10.2-35.2-22.8c0.4-6.8,4.3-12.9,10.3-16.1
				C62.8,510,81.1,517.9,110.4,519.7z"/>
			<path id="Shape_10_" class="st3" d="M206.8,513.9c0,12.6-15.8,22.8-35.2,22.8c-16.4,0-30.1-7.2-34-17
				c29.4-1.8,47.6-9.7,58.9-21.9C202.5,501,206.4,507.1,206.8,513.9z"/>
			<path id="Shape_11_" class="st4" d="M35.1,466.1c0.4,0,0.9,0.1,1.3,0.2c2.1,11.7,7.3,22.6,15.1,31.5c-6,3.2-9.9,9.3-10.3,16.1
				c0,12.6,15.8,22.8,35.2,22.8c2.1,0,4.2-0.1,6.3-0.4c-16.5-1.9-29-11.2-29-22.4c0.4-6.8,4.3-12.9,10.3-16.1
				c-7.8-8.9-13.1-19.8-15.1-31.5c-0.4-0.1-0.9-0.1-1.3-0.2c-17.7-2.4-28.4-21.6-20-41.2c4.3-8.2,10.4-15.4,17.9-20.9
				c0.2-18.5,3.8-36.8,10.8-54c-29.6-3.9-31.3-45.9-2.7-52.8c0.1,0,0.1,0,0.2,0c-3.2-0.8-6.4-0.9-9.6-0.5c-2.4,0.3-2.5,0.5-2.9,0.5
				c-28.6,6.9-26.9,48.9,2.7,52.8c-7,17.2-10.6,35.5-10.8,54c-7.5,5.5-13.6,12.6-17.9,20.9C6.7,444.6,17.4,463.8,35.1,466.1z"/>
			<path id="Shape_12_" class="st4" d="M33,370.3l8.1,1.8c-2.3,10.5-3.6,21.3-3.9,32l-8.3-0.2C29.2,392.6,30.6,381.4,33,370.3z"/>
			<g>
				<path id="Shape_13_" class="st5" d="M86.7,387.6c6.9,0,12.4-5.6,12.4-12.4s-5.6-12.4-12.4-12.4s-12.4,5.6-12.4,12.4
					S79.9,387.6,86.7,387.6z M86.7,371c2.3,0,4.1,1.9,4.1,4.1c0,2.3-1.9,4.1-4.1,4.1s-4.1-1.9-4.1-4.1C82.6,372.9,84.4,371,86.7,371
					z"/>
				<path id="Shape_14_" class="st5" d="M148.9,375.2c0,6.9,5.6,12.4,12.4,12.4c6.9,0,12.4-5.6,12.4-12.4s-5.6-12.4-12.4-12.4
					C154.4,362.7,148.9,368.3,148.9,375.2z M165.4,375.2c0,2.3-1.9,4.1-4.1,4.1s-4.1-1.9-4.1-4.1c0-2.3,1.9-4.1,4.1-4.1
					S165.4,372.9,165.4,375.2z"/>
				<path id="Shape_15_" class="st5" d="M124,379.3c-6.6-0.3-13.1,2.2-17.7,7c-14.4,4.7-23.7,14.8-23.7,26.2c0,19.2,13.9,29,41.4,29
					s41.4-9.8,41.4-29c0-11.3-9.3-21.5-23.7-26.2C137.1,381.5,130.6,379,124,379.3L124,379.3z M136.4,393.8c0,2.9-5.3,6.2-12.4,6.2
					s-12.4-3.3-12.4-6.2c0-2.9,5.3-6.2,12.4-6.2S136.4,390.9,136.4,393.8z M157.1,412.4c0,8.9-3.4,20.7-33.1,20.7
					s-33.1-11.8-33.1-20.7c0-6.4,4.9-12.3,12.8-16.2c1.4,6,7.8,10.6,16.2,11.8v8.6h-4.1c-2.3,0-4.1,1.9-4.1,4.1
					c0,2.3,1.9,4.1,4.1,4.1h16.6c2.3,0,4.1-1.9,4.1-4.1c0-2.3-1.9-4.1-4.1-4.1h-4.1V408c8.4-1.2,14.8-5.8,16.2-11.8
					C152.3,400.1,157.1,406.1,157.1,412.4z"/>
				<path id="Shape_16_" class="st5" d="M69,347.4c-1.6-1.6-4.2-1.5-5.8,0.1c-1.6,1.6-1.6,4.2-0.1,5.8l4.1,4.1
					c1.6,1.6,4.2,1.5,5.8-0.1c1.6-1.6,1.6-4.2,0.1-5.8L69,347.4z"/>
				<path id="Shape_17_" class="st5" d="M82.6,354.4c1.4,0,2.8-0.7,3.5-2c0.8-1.2,0.8-2.7,0.2-4l-4.1-8.3c-1-2-3.5-2.9-5.6-1.9
					c-2,1-2.9,3.5-1.9,5.6l4.1,8.3C79.6,353.6,81,354.4,82.6,354.4L82.6,354.4z"/>
				<path id="Shape_18_" class="st5" d="M180.8,357.4l4.1-4.1c1.6-1.6,1.5-4.2-0.1-5.8c-1.6-1.6-4.2-1.6-5.8-0.1l-4.1,4.1
					c-1.1,1-1.5,2.6-1.1,4c0.4,1.4,1.5,2.6,3,3C178.2,358.9,179.7,358.5,180.8,357.4L180.8,357.4z"/>
				<path id="Shape_19_" class="st5" d="M165.4,354.4c1.6,0,3-0.9,3.7-2.3l4.1-8.3c0.7-1.3,0.6-2.9-0.3-4.1
					c-0.8-1.2-2.2-1.9-3.7-1.9s-2.8,1-3.5,2.3l-4.1,8.3c-0.6,1.3-0.6,2.8,0.2,4C162.7,353.7,164,354.4,165.4,354.4L165.4,354.4z"/>
				<path id="Shape_20_" class="st5" d="M34.4,391.7c-2.3,0-4.2-1.8-4.2-4.1c0-2.3,1.8-4.2,4.1-4.2h0c2.3,0,4.1,1.9,4.1,4.1
					C38.5,389.8,36.6,391.7,34.4,391.7z"/>
				<path id="Shape_21_" class="st5" d="M33,469.9c2.2,9.8,6.5,19.1,12.6,27.1c-5.2,4.1-8.3,10.2-8.6,16.8
					c0,15.1,17.3,26.9,39.3,26.9c16.2,0,30.7-6.8,36.5-16.8c3.6,0.2,7.3,0.3,11.1,0.3c3.8,0,7.5-0.1,11.1-0.3
					c5.8,10,20.3,16.8,36.5,16.8c22.1,0,39.3-11.8,39.3-26.9c-0.2-6.6-3.4-12.8-8.6-16.8c6.1-8,10.4-17.3,12.6-27.1
					c9.9-2,18.3-8.7,22.3-18c3.7-9.2,3.5-19.6-0.6-28.6c-4.2-8.3-10.2-15.6-17.7-21.2c-0.4-16.8-3.5-33.3-9.1-49.1
					c13.4-4.2,22.3-16.7,21.8-30.7c-0.5-14-10.2-25.9-23.8-29.2c-13.6-3.3-27.7,3-34.4,15.2c-15.2-8.2-32.2-12.3-49.5-11.9
					c-10.6,0-21.2,1.5-31.5,4.3c-6.2,1.9-12.2,4.5-17.9,7.8c-6.7-12.3-20.8-18.7-34.4-15.4c-13.6,3.2-23.5,15.2-23.9,29.2
					c-0.5,14,8.5,26.6,21.9,30.7c-2.2,5.6-4,11.4-5.3,17.3c-0.3,1.1-0.1,2.2,0.5,3.2c0.6,0.9,1.6,1.6,2.7,1.8c2.2,0.4,4.3-1,4.9-3.1
					c4.4-19.2,13.3-37.8,28.3-50.1c7.6-6,16.3-10.6,25.5-13.3c9.5-2.6,19.3-4,29.1-4c73.1,0,85.8,62.3,86.8,99.4
					c0,1.2,0.6,2.4,1.5,3.2c7,5.1,12.7,11.7,16.8,19.3c3.2,7,3.4,15,0.6,22.1c-3.1,7-9.5,12.1-17.1,13.3c-0.5,0-1,0.1-1.4,0.2
					c-7,0.6-13.8-3-17.1-9.2c-0.9-2-3.3-3-5.4-2.1c-2.1,0.9-3.1,3.2-2.2,5.3c3.8,7.8,11.4,13.2,20.1,14.1
					c-6.2,23.4-22.4,45.7-82.4,45.7s-76.2-22.4-82.4-45.7c8.7-0.9,16.3-6.2,20.1-14.1c0.8-2.1-0.2-4.5-2.2-5.3
					c-2.1-0.9-4.5,0-5.4,2.1c-3.3,6.2-10.1,9.9-17.1,9.3c-0.4-0.1-0.9-0.1-1.2-0.2c-7.7-1.2-14.2-6.3-17.3-13.4
					c-2.8-7.2-2.6-15.1,0.6-22.1c4.1-7.6,9.8-14.2,16.8-19.3c1.2-0.9,1.8-2.4,1.5-3.9c-0.2-1.5-1.3-2.7-2.7-3.2
					c-1.4-0.5-3-0.2-4.1,0.8c-8,5.9-14.5,13.6-19.1,22.4c-4.1,9.1-4.3,19.4-0.6,28.6C14.8,461.2,23.1,467.9,33,469.9L33,469.9z
					 M43.9,340.6c-0.8,1.6-1.6,3.2-2.3,4.8c-10.1-2.7-17.1-11.9-17-22.3c0.2-10.5,7.4-19.5,17.6-21.8s20.7,2.6,25.4,11.9
					c-1.2,0.9-2.4,1.7-3.5,2.6C55.8,322.5,48.9,331,43.9,340.6z M180.5,312.9c4.8-9.2,15.2-14,25.4-11.7
					c10.1,2.4,17.4,11.3,17.6,21.7c0.2,10.4-6.7,19.6-16.7,22.4C200.8,332.4,191.8,321.3,180.5,312.9z M196.8,503.2
					c3.5,2.5,5.6,6.5,5.9,10.7c0,10.1-14.2,18.6-31.1,18.6c-9.7,0.4-19.3-2.9-26.7-9.3C167.9,520.9,185,514.4,196.8,503.2z
					 M103,523.2c-7.4,6.4-16.9,9.7-26.7,9.3c-16.8,0-31.1-8.5-31.1-18.6c0.2-4.3,2.4-8.2,5.9-10.7C63,514.4,80.1,520.9,103,523.2
					L103,523.2z"/>
			</g>
		</g>
	</g>
</g>
</svg>
