<?xml version="1.0" encoding="utf-8"?>
<!-- Generator: Adobe Illustrator 19.0.0, SVG Export Plug-In . SVG Version: 6.00 Build 0)  -->
<svg version="1.1" id="Warstwa_1" xmlns="http://www.w3.org/2000/svg" xmlns:xlink="http://www.w3.org/1999/xlink" x="0px" y="0px"
	 viewBox="0 0 488 68.7" style="enable-background:new 0 0 488 68.7;" xml:space="preserve">
<g id="XMLID_93_">
	<path id="XMLID_94_" d="M18.2,31l-8.6,8.7v12.1H2.9v-47h6.7v26.2L35.1,4.9h7.6L22.7,26L44,51.8h-7.9L18.2,31z"/>
	<path id="XMLID_96_" d="M53,49.4c-1.9-1.9-2.8-4.6-2.8-8V2h6.4v38.8c0,1.9,0.5,3.4,1.4,4.4c0.9,1,2.3,1.5,4.1,1.5
		c1.1,0,2.2-0.2,3.2-0.7l0.3,5.3c-1.5,0.5-3,0.8-4.6,0.8C57.5,52.2,54.9,51.3,53,49.4z"/>
	<path id="XMLID_98_" d="M71.8,8.2c-0.8-0.8-1.2-1.8-1.2-3c0-1.2,0.4-2.2,1.2-3C72.7,1.5,73.7,1,75,1c1.3,0,2.3,0.4,3.1,1.2
		C78.9,3,79.3,4,79.3,5.1c0,1.2-0.4,2.2-1.2,3.1C77.2,9,76.2,9.4,75,9.4C73.7,9.4,72.7,9,71.8,8.2z M71.7,16.3h6.4v35.6h-6.4V16.3z"
		/>
	<path id="XMLID_101_" d="M120.2,19.9c2.7,2.6,4,6.5,4,11.5v20.5h-6.4V32.1c0-3.4-0.8-6-2.5-7.8c-1.7-1.7-4-2.6-7.1-2.6
		c-3.5,0-6.2,1-8.3,3.1c-2,2-3,5-3,8.8v18.3h-6.4V16.3h6.2v5.4c1.3-1.8,3.1-3.2,5.3-4.2c2.2-1,4.7-1.5,7.5-1.5
		C114,15.9,117.6,17.2,120.2,19.9z"/>
	<path id="XMLID_103_" d="M136.3,8.2c-0.8-0.8-1.2-1.8-1.2-3c0-1.2,0.4-2.2,1.2-3c0.8-0.8,1.9-1.2,3.1-1.2c1.3,0,2.3,0.4,3.1,1.2
		c0.8,0.8,1.2,1.8,1.2,2.9c0,1.2-0.4,2.2-1.2,3.1c-0.8,0.8-1.9,1.2-3.1,1.2C138.1,9.4,137.1,9,136.3,8.2z M136.2,16.3h6.4v35.6h-6.4
		V16.3z"/>
	<path id="XMLID_106_" d="M168.7,35.3l-7.4,6.8v9.7h-6.4V2h6.4V34l19.4-17.7h7.8l-15,14.7L190,51.8h-7.9L168.7,35.3z"/>
	<path id="XMLID_108_" d="M228.3,16.3v35.6h-6.2v-5.6c-1.4,2-3.2,3.5-5.4,4.5c-2.2,1-4.6,1.5-7.2,1.5c-3.4,0-6.5-0.8-9.3-2.3
		c-2.7-1.5-4.9-3.7-6.4-6.4s-2.3-5.9-2.3-9.5c0-3.6,0.8-6.7,2.3-9.5c1.5-2.7,3.7-4.9,6.4-6.4c2.7-1.5,5.8-2.3,9.3-2.3
		c2.5,0,4.9,0.5,7,1.4c2.1,1,3.9,2.4,5.4,4.3v-5.4H228.3z M216.1,45c1.8-1.1,3.3-2.5,4.3-4.4c1-1.9,1.5-4.1,1.5-6.5
		c0-2.5-0.5-4.6-1.5-6.5c-1-1.9-2.5-3.4-4.3-4.4c-1.8-1-3.9-1.5-6.1-1.5c-2.3,0-4.3,0.5-6.1,1.5c-1.8,1-3.2,2.5-4.3,4.4
		c-1.1,1.9-1.6,4.1-1.6,6.5c0,2.5,0.5,4.6,1.6,6.5c1.1,1.9,2.5,3.4,4.3,4.4c1.8,1.1,3.9,1.6,6.1,1.6C212.2,46.6,214.2,46.1,216.1,45
		z"/>
	<path id="XMLID_111_" d="M292.2,9.2c3.5,2.9,5.2,6.9,5.2,12s-1.7,9.1-5.2,12c-3.5,2.9-8.3,4.4-14.4,4.4h-11.6v14.2h-6.7v-47h18.3
		C283.9,4.9,288.7,6.3,292.2,9.2z M287.3,29.1c2.2-1.8,3.4-4.4,3.4-7.8c0-3.4-1.1-6-3.4-7.8c-2.2-1.8-5.5-2.7-9.7-2.7h-11.4v21.1
		h11.4C281.9,31.8,285.1,30.9,287.3,29.1z"/>
	<path id="XMLID_114_" d="M305.8,8.2c-0.8-0.8-1.2-1.8-1.2-3c0-1.2,0.4-2.2,1.2-3c0.8-0.8,1.9-1.2,3.1-1.2c1.3,0,2.3,0.4,3.1,1.2
		c0.8,0.8,1.2,1.8,1.2,2.9c0,1.2-0.4,2.2-1.2,3.1c-0.8,0.8-1.9,1.2-3.1,1.2C307.7,9.4,306.7,9,305.8,8.2z M305.7,16.3h6.4v35.6h-6.4
		V16.3z"/>
	<path id="XMLID_117_" d="M345.8,54.8c-1.1,1.6-1.6,3.2-1.6,4.6c0,1.2,0.4,2.1,1.1,2.8c0.8,0.6,1.8,0.9,3,0.9c0.7,0,1.4-0.1,2.2-0.3
		c0.7-0.2,1.4-0.5,1.9-0.8l1.2,3.3c-1.7,1.1-3.7,1.6-6,1.6c-2.5,0-4.4-0.6-5.8-1.9c-1.4-1.3-2.1-3-2.1-5.1c0-2.8,1.1-5.3,3.3-7.7
		c-1.2,0.1-2,0.1-2.6,0.1c-3.8,0-7.1-0.8-10-2.3c-2.9-1.5-5.2-3.7-6.7-6.5c-1.6-2.8-2.4-5.9-2.4-9.4c0-3.4,0.8-6.6,2.3-9.3
		c1.5-2.8,3.7-4.9,6.4-6.5c2.7-1.5,5.8-2.3,9.2-2.3c3.2,0,6.2,0.7,8.8,2.2c2.6,1.5,4.7,3.5,6.3,6.1c1.6,2.6,2.4,5.7,2.4,9.1
		l-28.3,5.5c0.9,2.5,2.4,4.4,4.5,5.7c2.1,1.3,4.7,2,7.7,2c4.2,0,7.7-1.4,10.3-4.3l3.5,4.2c-0.4,0.5-1.3,1.3-2.6,2.4
		C348.8,51.2,346.9,53.2,345.8,54.8z M333,22.9c-1.8,1-3.1,2.5-4.1,4.3c-1,1.9-1.5,4-1.5,6.5v0.7l22.7-4.3c-0.6-2.6-1.9-4.7-3.9-6.3
		c-2-1.6-4.4-2.4-7.2-2.4C336.8,21.4,334.8,21.9,333,22.9z"/>
	<path id="XMLID_120_" d="M379.3,35.3l-7.4,6.8v9.7h-6.4V2h6.4V34l19.4-17.7h7.8l-15,14.7l16.4,20.9h-7.9L379.3,35.3z"/>
	<path id="XMLID_122_" d="M436.1,19.9c2.7,2.6,4,6.5,4,11.5v20.5h-6.4V32.1c0-3.4-0.8-6-2.5-7.8c-1.7-1.7-4-2.6-7.1-2.6
		c-3.5,0-6.2,1-8.3,3.1c-2,2-3,5-3,8.8v18.3h-6.4V16.3h6.2v5.4c1.3-1.8,3.1-3.2,5.3-4.2c2.2-1,4.7-1.5,7.5-1.5
		C429.9,15.9,433.5,17.2,436.1,19.9z"/>
	<path id="XMLID_124_" d="M485.8,16.3v35.6h-6.2v-5.6c-1.4,2-3.2,3.5-5.4,4.5c-2.2,1-4.6,1.5-7.2,1.5c-3.4,0-6.5-0.8-9.3-2.3
		c-2.7-1.5-4.9-3.7-6.4-6.4c-1.5-2.8-2.3-5.9-2.3-9.5c0-3.6,0.8-6.7,2.3-9.5c1.5-2.7,3.7-4.9,6.4-6.4c2.7-1.5,5.8-2.3,9.3-2.3
		c2.6,0,4.9,0.5,7,1.4c2.1,1,3.9,2.4,5.4,4.3v-5.4H485.8z M473.6,45c1.8-1.1,3.3-2.5,4.3-4.4c1-1.9,1.5-4.1,1.5-6.5
		c0-2.5-0.5-4.6-1.5-6.5c-1-1.9-2.5-3.4-4.3-4.4c-1.8-1-3.9-1.5-6.1-1.5c-2.3,0-4.3,0.5-6.1,1.5c-1.8,1-3.2,2.5-4.3,4.4
		c-1.1,1.9-1.6,4.1-1.6,6.5c0,2.5,0.5,4.6,1.6,6.5c1,1.9,2.5,3.4,4.3,4.4c1.8,1.1,3.9,1.6,6.1,1.6C469.8,46.6,471.8,46.1,473.6,45z"
		/>
</g>
</svg>
